<svg xmlns="http://www.w3.org/2000/svg" width="14" height="14" viewBox="0 0 14 14"><defs><style>.a{fill:#446cd2;}.b{fill:#fff;}</style></defs><g transform="translate(-36 -761)"><circle class="a" cx="7" cy="7" r="7" transform="translate(36 761)"/><g transform="translate(-57.84 651.18)"><path class="b" d="M104.77,115.965a.383.383,0,0,0-.239-.661l-2.085-.257a.413.413,0,0,1-.316-.209l-.956-1.755a.428.428,0,0,0-.745.01l-.9,1.779a.413.413,0,0,1-.31.217l-2.076.31a.382.382,0,0,0-.22.666l1.526,1.356a.375.375,0,0,1,.124.343l-.327,1.947a.411.411,0,0,0,.608.4l1.847-.939a.439.439,0,0,1,.386,0l1.874.893a.41.41,0,0,0,.6-.418l-.384-1.937a.376.376,0,0,1,.114-.346Z" transform="translate(0 0.304)"/><path class="b" d="M606.546,146.867c.3.355,1.129.388,1.129.388a.107.107,0,0,0,.074-.176l-.352-.408a.106.106,0,0,1-.023-.1l.136-.521a.106.106,0,0,0-.144-.125l-.5.209a.106.106,0,0,1-.1-.009l-.454-.292a.107.107,0,0,0-.164.1A1.973,1.973,0,0,0,606.546,146.867Z" transform="translate(-504.067 -32.188)"/></g></g></svg>