<?xml version="1.0" standalone="no"?><!DOCTYPE svg PUBLIC "-//W3C//DTD SVG 1.1//EN" "http://www.w3.org/Graphics/SVG/1.1/DTD/svg11.dtd"><svg t="1678629984028" class="icon" viewBox="0 0 1024 1024" version="1.1" xmlns="http://www.w3.org/2000/svg" p-id="13333" xmlns:xlink="http://www.w3.org/1999/xlink" width="128" height="128"><path d="M219.428571 73.142857h585.142858a146.285714 146.285714 0 0 1 146.285714 146.285714v438.857143a146.285714 146.285714 0 0 1-146.285714 146.285715H219.428571a146.285714 146.285714 0 0 1-146.285714-146.285715V219.428571a146.285714 146.285714 0 0 1 146.285714-146.285714z m73.142858 804.571429h438.857142a36.571429 36.571429 0 1 1 0 73.142857H292.571429a36.571429 36.571429 0 1 1 0-73.142857z m292.571428-621.714286a36.571429 36.571429 0 0 0 0 73.142857h219.428572a36.571429 36.571429 0 0 0 0-73.142857h-219.428572z m0 146.285714a36.571429 36.571429 0 1 0 0 73.142857h219.428572a36.571429 36.571429 0 1 0 0-73.142857h-219.428572z m73.142857 146.285715a36.571429 36.571429 0 1 0 0 73.142857h146.285715a36.571429 36.571429 0 1 0 0-73.142857h-146.285715z m-306.651428-123.794286a84.406857 84.406857 0 1 0 0-168.777143 84.406857 84.406857 0 0 0 0 168.777143z m59.867428 10.934857a112.018286 112.018286 0 0 1-59.867428 17.188571 112.018286 112.018286 0 0 1-59.830857-17.188571A168.850286 168.850286 0 0 0 182.857143 593.590857c0 15.542857 12.580571 28.16 28.16 28.16h281.307428a28.16 28.16 0 0 0 28.123429-28.16 168.850286 168.850286 0 0 0-108.982857-157.878857z" fill="#0061b2" p-id="13334"></path></svg>