<?xml version="1.0" standalone="no"?><!DOCTYPE svg PUBLIC "-//W3C//DTD SVG 1.1//EN" "http://www.w3.org/Graphics/SVG/1.1/DTD/svg11.dtd"><svg t="1678630037790" class="icon" viewBox="0 0 1024 1024" version="1.1" xmlns="http://www.w3.org/2000/svg" p-id="14377" xmlns:xlink="http://www.w3.org/1999/xlink" width="128" height="128"><path d="M767.544889 521.784889a238.364444 238.364444 0 0 0-374.328889-295.139556 201.272889 201.272889 0 0 1 62.236444 10.808889A185.457778 185.457778 0 1 1 671.288889 536.462222a312.206222 312.206222 0 0 1 220.046222 297.984h-238.933333A285.127111 285.127111 0 0 0 523.377778 597.219556a198.314667 198.314667 0 0 0 44.828444-125.155556 201.386667 201.386667 0 0 0-402.773333 0 198.314667 198.314667 0 0 0 44.828444 125.155556A285.127111 285.127111 0 0 0 79.644444 834.446222V887.466667h419.043556a26.168889 26.168889 0 1 0 0-52.337778H132.096a238.933333 238.933333 0 0 1 3.640889-37.432889c0-1.479111 0-2.958222 0.682667-4.323556s0.682667-3.413333 1.137777-5.233777a232.675556 232.675556 0 0 1 177.379556-178.744889 148.48 148.48 0 1 1 102.4 0 232.789333 232.789333 0 0 1 177.607111 178.744889c0 1.820444 0.796444 3.413333 1.137778 5.233777l0.682666 4.323556a235.52 235.52 0 0 1 3.868445 41.415111 241.208889 241.208889 0 0 1-5.006222 48.355556H944.355556v-53.020445a362.382222 362.382222 0 0 0-176.810667-312.661333z" fill="#d81e06" p-id="14378"></path></svg>