<?xml version="1.0" standalone="no"?><!DOCTYPE svg PUBLIC "-//W3C//DTD SVG 1.1//EN" "http://www.w3.org/Graphics/SVG/1.1/DTD/svg11.dtd"><svg t="1678629578594" class="icon" viewBox="0 0 1024 1024" version="1.1" xmlns="http://www.w3.org/2000/svg" p-id="4761" width="128" height="128" xmlns:xlink="http://www.w3.org/1999/xlink"><path d="M722.6 645.295c17.497-26.999 9.793-63.072-17.206-80.567-21.997-14.255-45.104-26.406-69.045-36.377 69.66-51.387 114.937-134.006 114.937-227.013 0-155.467-126.483-281.951-281.951-281.951s-281.951 126.483-281.951 281.951c0 92.95 45.223 175.527 114.811 226.919-51.763 21.557-99.309 53.261-140.153 94.103-82.080 82.080-127.284 191.213-127.284 307.292 0 32.174 26.082 58.254 58.254 58.254s58.254-26.080 58.254-58.254c0-175.385 142.685-318.068 318.068-318.068 61.579 0 121.298 17.606 172.699 50.915 27.002 17.498 63.074 9.793 80.567-17.206zM469.334 135.897c91.225 0 165.442 74.218 165.442 165.442s-74.218 165.442-165.442 165.442c-91.225 0-165.442-74.217-165.442-165.442s74.218-165.442 165.442-165.442z" p-id="4762" fill="#e16531"></path><path d="M926.63 743.197h-66.992v-66.992c0-32.174-26.080-58.254-58.254-58.254s-58.254 26.080-58.254 58.254v66.992h-66.992c-32.174 0-58.254 26.080-58.254 58.254s26.080 58.254 58.254 58.254h66.992v66.992c0 32.174 26.080 58.254 58.254 58.254s58.254-26.080 58.254-58.254v-66.992h66.992c32.174 0 58.254-26.080 58.254-58.254s-26.080-58.254-58.254-58.254z" p-id="4763" fill="#e16531"></path></svg>