<?xml version="1.0" standalone="no"?><!DOCTYPE svg PUBLIC "-//W3C//DTD SVG 1.1//EN" "http://www.w3.org/Graphics/SVG/1.1/DTD/svg11.dtd"><svg t="1678629470451" class="icon" viewBox="0 0 1024 1024" version="1.1" xmlns="http://www.w3.org/2000/svg" p-id="2759" width="128" height="128" xmlns:xlink="http://www.w3.org/1999/xlink"><path d="M512 518.4c-166.4 0-307.2 134.4-307.2 307.2 0 25.6 6.4 38.4 12.8 64l588.8 6.4c6.4-25.6 12.8-38.4 12.8-70.4 0-166.4-140.8-307.2-307.2-307.2z" fill="#D1F1D9" p-id="2760"></path><path d="M204.8 915.2c-12.8 0-25.6-12.8-25.6-25.6v-64c0-134.4 83.2-256 204.8-300.8l12.8-6.4-6.4-12.8C345.6 467.2 320 416 320 352c0-108.8 89.6-192 192-192s192 89.6 192 192c0 57.6-25.6 115.2-76.8 153.6l-6.4 12.8 12.8 6.4c128 51.2 204.8 166.4 204.8 300.8v64c0 12.8-12.8 25.6-25.6 25.6h-608zM512 550.4c-153.6 0-281.6 121.6-281.6 275.2v44.8h556.8v-44.8c6.4-153.6-121.6-275.2-275.2-275.2z m0-339.2c-76.8 0-147.2 64-147.2 140.8s64 140.8 147.2 140.8c76.8 0 147.2-64 147.2-140.8S588.8 211.2 512 211.2z m-441.6 608c-12.8 0-25.6-12.8-25.6-25.6v-51.2c0-96 51.2-185.6 140.8-230.4l12.8-6.4-6.4-12.8c-25.6-25.6-44.8-64-44.8-102.4 0-83.2 70.4-153.6 153.6-160-12.8 19.2-25.6 38.4-32 57.6-38.4 12.8-70.4 51.2-70.4 102.4 0 44.8 25.6 83.2 64 102.4 12.8 0 19.2 6.4 19.2 19.2s-6.4 19.2-19.2 25.6H256c-89.6 19.2-160 102.4-160 204.8v25.6h32c0 19.2-6.4 32-6.4 51.2H70.4z m832 0c0-19.2 0-32-6.4-51.2h32v-25.6c0-96-64-179.2-160-204.8h-6.4c-12.8-6.4-19.2-12.8-19.2-25.6s6.4-19.2 19.2-25.6c38.4-19.2 64-57.6 64-102.4s-32-89.6-70.4-102.4c-6.4-19.2-19.2-38.4-32-57.6 83.2 6.4 153.6 76.8 153.6 160 0 38.4-12.8 76.8-44.8 108.8l-6.4 6.4 12.8 6.4c89.6 44.8 140.8 134.4 140.8 230.4v51.2c0 12.8-12.8 25.6-25.6 25.6l-51.2 6.4z" fill="#18B740" p-id="2761"></path></svg>