<?xml version="1.0" standalone="no"?><!DOCTYPE svg PUBLIC "-//W3C//DTD SVG 1.1//EN" "http://www.w3.org/Graphics/SVG/1.1/DTD/svg11.dtd"><svg t="1678629928684" class="icon" viewBox="0 0 1024 1024" version="1.1" xmlns="http://www.w3.org/2000/svg" p-id="12233" xmlns:xlink="http://www.w3.org/1999/xlink" width="128" height="128"><path d="M128 405.333333c0-103.013333 81.126667-187.066667 182.973333-191.78a299.126667 299.126667 0 0 0 130.866667 340.173334A191.206667 191.206667 0 0 1 320 597.333333c-106.04 0-192-85.96-192-192z m20.146667 391A256.886667 256.886667 0 0 1 242.44 682.666667H181.333333A181.333333 181.333333 0 0 0 0 864v21.333333a53.393333 53.393333 0 0 0 53.333333 53.333334h75.26a97.213333 97.213333 0 0 1-0.593333-10.666667v-32a254.446667 254.446667 0 0 1 20.146667-99.666667z m813.366666-51.18A211.94 211.94 0 0 0 810.666667 682.666667H384a213.333333 213.333333 0 0 0-213.333333 213.333333v32a53.393333 53.393333 0 0 0 53.333333 53.333333h746.666667a53.393333 53.393333 0 0 0 53.333333-53.333333v-32a211.94 211.94 0 0 0-62.486667-150.846667zM853.333333 298.666667c0 141.386667-114.613333 256-256 256S341.333333 440.053333 341.333333 298.666667 455.946667 42.666667 597.333333 42.666667s256 114.613333 256 256z" fill="#1195db" p-id="12234"></path></svg>